<svg xmlns="http://www.w3.org/2000/svg" xmlns:xlink="http://www.w3.org/1999/xlink" width="80" zoomAndPan="magnify" viewBox="0 0 60 60" height="80" preserveAspectRatio="xMidYMid meet" version="1.0"><defs><clipPath id="93d78cabe6"><path d="M 0 21.242188 L 60 21.242188 L 60 42.242188 L 0 42.242188 Z M 0 21.242188 " clip-rule="nonzero"/></clipPath></defs><g clip-path="url(#93d78cabe6)"><path fill="#000000" d="M 49.144531 21.242188 C 46.769531 21.242188 44.5625 22.023438 42.765625 23.34375 C 40.964844 22.023438 38.757812 21.242188 36.382812 21.242188 C 34.003906 21.242188 31.800781 22.023438 30 23.34375 C 28.199219 22.023438 26.027344 21.242188 23.617188 21.242188 C 21.242188 21.242188 19.035156 22.023438 17.234375 23.34375 C 15.472656 22.023438 13.265625 21.242188 10.855469 21.242188 C 4.980469 21.242188 0.195312 25.953125 0.195312 31.742188 C 0.195312 37.535156 4.980469 42.242188 10.855469 42.242188 C 13.230469 42.242188 15.4375 41.464844 17.234375 40.144531 C 19.035156 41.464844 21.242188 42.242188 23.617188 42.242188 C 25.996094 42.242188 28.199219 41.464844 30 40.144531 C 31.765625 41.464844 33.972656 42.242188 36.382812 42.242188 C 38.757812 42.242188 40.964844 41.464844 42.765625 40.144531 C 44.527344 41.464844 46.734375 42.242188 49.144531 42.242188 C 55.019531 42.242188 59.804688 37.535156 59.804688 31.742188 C 59.804688 25.953125 55.019531 21.242188 49.144531 21.242188 Z M 42.765625 37.164062 C 41.472656 35.707031 40.691406 33.808594 40.691406 31.742188 C 40.691406 29.675781 41.472656 27.78125 42.765625 26.324219 C 44.054688 27.78125 44.835938 29.675781 44.835938 31.742188 C 44.835938 33.808594 44.054688 35.707031 42.765625 37.164062 Z M 30 37.164062 C 28.710938 35.707031 27.929688 33.808594 27.929688 31.742188 C 27.929688 29.675781 28.710938 27.78125 30 26.324219 C 31.289062 27.78125 32.070312 29.675781 32.070312 31.742188 C 32.070312 33.808594 31.289062 35.707031 30 37.164062 Z M 17.234375 37.164062 C 15.945312 35.707031 15.164062 33.808594 15.164062 31.742188 C 15.164062 29.675781 15.945312 27.78125 17.234375 26.324219 C 18.527344 27.78125 19.308594 29.675781 19.308594 31.742188 C 19.339844 33.808594 18.527344 35.707031 17.234375 37.164062 Z M 2.402344 31.742188 C 2.402344 27.171875 6.203125 23.445312 10.855469 23.445312 C 12.585938 23.445312 14.214844 23.953125 15.574219 24.867188 C 13.941406 26.695312 12.957031 29.101562 12.957031 31.742188 C 12.957031 34.386719 13.941406 36.789062 15.574219 38.621094 C 14.214844 39.5 12.621094 40.042969 10.855469 40.042969 C 6.203125 40.042969 2.402344 36.316406 2.402344 31.742188 Z M 18.898438 38.621094 C 20.527344 36.789062 21.511719 34.386719 21.511719 31.742188 C 21.511719 29.101562 20.527344 26.695312 18.898438 24.867188 C 20.257812 23.988281 21.851562 23.445312 23.617188 23.445312 C 25.382812 23.445312 26.980469 23.953125 28.335938 24.867188 C 26.707031 26.695312 25.6875 29.101562 25.6875 31.742188 C 25.6875 34.386719 26.671875 36.789062 28.335938 38.621094 C 26.980469 39.5 25.382812 40.042969 23.617188 40.042969 C 21.886719 40.042969 20.257812 39.5 18.898438 38.621094 Z M 31.664062 38.621094 C 33.292969 36.789062 34.3125 34.386719 34.3125 31.742188 C 34.3125 29.101562 33.328125 26.695312 31.664062 24.867188 C 33.019531 23.988281 34.617188 23.445312 36.382812 23.445312 C 38.148438 23.445312 39.742188 23.953125 41.101562 24.867188 C 39.472656 26.695312 38.453125 29.101562 38.453125 31.742188 C 38.453125 34.386719 39.4375 36.789062 41.101562 38.621094 C 39.742188 39.5 38.148438 40.042969 36.382812 40.042969 C 34.617188 40.042969 33.019531 39.5 31.664062 38.621094 Z M 49.144531 40.042969 C 47.414062 40.042969 45.785156 39.535156 44.425781 38.621094 C 46.058594 36.789062 47.074219 34.386719 47.074219 31.742188 C 47.074219 29.101562 46.089844 26.695312 44.425781 24.867188 C 45.785156 23.988281 47.378906 23.445312 49.144531 23.445312 C 53.796875 23.445312 57.597656 27.171875 57.597656 31.742188 C 57.597656 36.316406 53.796875 40.042969 49.144531 40.042969 Z M 49.144531 40.042969 " fill-opacity="1" fill-rule="nonzero"/></g></svg>