<svg xmlns="http://www.w3.org/2000/svg" xmlns:xlink="http://www.w3.org/1999/xlink" width="80" zoomAndPan="magnify" viewBox="0 0 60 60" height="80" preserveAspectRatio="xMidYMid meet" version="1.0"><path fill="#000000" d="M 27.070312 32.28125 L 34.34375 32.28125 L 34.34375 29.855469 L 33.550781 29.855469 C 33.550781 30.792969 32.878906 31.464844 31.824219 31.464844 L 30.71875 31.464844 L 30.71875 27.839844 L 31.921875 27.839844 L 31.921875 27.023438 L 27.070312 27.023438 L 27.070312 27.839844 L 28.296875 27.839844 L 28.296875 31.464844 L 27.070312 31.464844 Z M 27.070312 32.28125 " fill-opacity="1" fill-rule="nonzero"/><path fill="#000000" d="M 37.847656 32.28125 L 40.679688 32.28125 L 43.105469 27.839844 L 44.304688 27.839844 L 44.304688 27.023438 L 40.679688 27.023438 L 40.679688 27.839844 L 41.734375 27.839844 L 39.960938 31.078125 L 38.207031 27.839844 L 39.480469 27.839844 L 39.480469 27.023438 L 34.199219 27.023438 L 34.199219 27.839844 L 35.398438 27.839844 Z M 37.847656 32.28125 " fill-opacity="1" fill-rule="nonzero"/><path fill="#000000" d="M 12.574219 27.023438 L 7.320312 27.023438 L 7.320312 27.839844 L 8.519531 27.839844 L 10.96875 32.28125 L 13.800781 32.28125 L 16.199219 27.839844 L 17.398438 27.839844 L 17.398438 27.023438 L 13.777344 27.023438 L 13.777344 27.839844 L 14.832031 27.839844 L 13.078125 31.078125 L 11.304688 27.839844 L 12.574219 27.839844 Z M 12.574219 27.023438 " fill-opacity="1" fill-rule="nonzero"/><path fill="#000000" d="M 18.121094 29.664062 C 18.121094 31.199219 19.367188 32.449219 21.863281 32.449219 C 24.359375 32.449219 25.585938 31.222656 25.585938 29.664062 C 25.585938 28.128906 24.289062 26.929688 21.839844 26.929688 C 19.414062 26.902344 18.121094 28.128906 18.121094 29.664062 Z M 23.136719 29.664062 C 23.113281 30.625 22.726562 31.609375 21.816406 31.585938 C 20.929688 31.558594 20.542969 30.574219 20.542969 29.617188 C 20.566406 28.609375 21.046875 27.71875 21.886719 27.742188 C 22.726562 27.742188 23.160156 28.65625 23.136719 29.664062 Z M 23.136719 29.664062 " fill-opacity="1" fill-rule="nonzero"/><path fill="#000000" d="M 45 29.664062 C 45 31.199219 46.246094 32.449219 48.742188 32.449219 C 51.238281 32.449219 52.464844 31.222656 52.464844 29.664062 C 52.464844 28.128906 51.167969 26.929688 48.71875 26.929688 C 46.296875 26.902344 45 28.128906 45 29.664062 Z M 48.769531 27.742188 C 49.609375 27.769531 50.039062 28.65625 50.015625 29.664062 C 49.992188 30.625 49.609375 31.609375 48.695312 31.585938 C 47.808594 31.558594 47.425781 30.574219 47.425781 29.617188 C 47.449219 28.609375 47.929688 27.71875 48.769531 27.742188 Z M 48.769531 27.742188 " fill-opacity="1" fill-rule="nonzero"/><path fill="#000000" d="M 54.695312 12.960938 L 51.648438 16.007812 C 54.265625 20.039062 55.777344 24.839844 55.777344 30 C 55.777344 44.230469 44.230469 55.777344 30 55.777344 C 15.769531 55.777344 4.222656 44.230469 4.222656 30 C 4.222656 15.769531 15.769531 4.222656 30 4.222656 C 35.183594 4.222656 39.984375 5.761719 44.015625 8.375 L 47.0625 5.328125 C 42.238281 1.96875 36.335938 0 30 0 C 13.441406 0 0 13.441406 0 30 C 0 46.558594 13.441406 60 30 60 C 46.558594 60 60 46.558594 60 30 C 60 23.664062 58.03125 17.785156 54.695312 12.960938 Z M 54.695312 12.960938 " fill-opacity="1" fill-rule="nonzero"/><path fill="#000000" d="M 45.097656 1.175781 L 45.097656 2.015625 C 46.921875 3 48.625 4.175781 50.207031 5.472656 L 45.9375 9.742188 C 47.542969 11.015625 49.007812 12.457031 50.28125 14.0625 L 54.550781 9.792969 C 55.871094 11.375 57.023438 13.105469 58.007812 14.878906 L 58.824219 14.878906 L 58.824219 1.175781 Z M 45.097656 1.175781 " fill-opacity="1" fill-rule="nonzero"/></svg>